HIERARCHY
ROOT Hips
{
    OFFSET 0.000000 0.000000 0.000000
    CHANNELS 6 Xposition Yposition Zposition Zrotation Xrotation Yrotation
    JOINT Spine
    {
        OFFSET -0.000000 7.315584 0.000000
        CHANNELS 3 Zrotation Xrotation Yrotation
        JOINT Spine1
        {
            OFFSET -0.000000 21.742830 0.000000
            CHANNELS 3 Zrotation Xrotation Yrotation
            JOINT Neck
            {
                OFFSET -0.000000 21.653538 1.968503
                CHANNELS 3 Zrotation Xrotation Yrotation
                JOINT Head
                {
                    OFFSET -0.000000 12.490022 -1.784289
                    CHANNELS 3 Zrotation Xrotation Yrotation
                    End Site
                    {
                        OFFSET -0.000000 22.303610 0.000000
                    }
                }
            }
            JOINT LeftShoulder
            {
                OFFSET 3.565460 21.440739 -0.045508
                CHANNELS 3 Zrotation Xrotation Yrotation
                JOINT LeftArm
                {
                    OFFSET 5.865323 0.000000 0.000000
                    CHANNELS 3 Zrotation Xrotation Yrotation
                    JOINT LeftForeArm
                    {
                        OFFSET 30.083149 0.000000 0.000000
                        CHANNELS 3 Zrotation Xrotation Yrotation
                        JOINT LeftHand
                        {
                            OFFSET 21.313328 0.000000 0.000000
                            CHANNELS 3 Zrotation Xrotation Yrotation
                            End Site
                            {
                                OFFSET 13.382167 0.000000 0.000000
                            }
                        }
                    }
                }
            }
            JOINT RightShoulder
            {
                OFFSET -3.556053 21.440739 -0.045508
                CHANNELS 3 Zrotation Xrotation Yrotation
                JOINT RightArm
                {
                    OFFSET -5.865323 0.000000 0.000000
                    CHANNELS 3 Zrotation Xrotation Yrotation
                    JOINT RightForeArm
                    {
                        OFFSET -30.083149 0.000000 0.000000
                        CHANNELS 3 Zrotation Xrotation Yrotation
                        JOINT RightHand
                        {
                            OFFSET -21.313328 0.000000 0.000000
                            CHANNELS 3 Zrotation Xrotation Yrotation
                            End Site
                            {
                                OFFSET -13.382167 0.000000 0.000000
                            }
                        }
                    }
                }
            }
        }
    }
    JOINT LeftUpLeg
    {
        OFFSET 8.921444 0.000000 0.000000
        CHANNELS 3 Zrotation Xrotation Yrotation
        JOINT LeftLeg
        {
            OFFSET -0.000000 -39.632927 0.000000
            CHANNELS 3 Zrotation Xrotation Yrotation
            JOINT LeftFoot
            {
                OFFSET -0.000000 -38.058365 0.000000
                CHANNELS 3 Zrotation Xrotation Yrotation
                JOINT LeftToeBase
                {
                    OFFSET -0.000000 -5.798938 13.382167
                    CHANNELS 3 Zrotation Xrotation Yrotation
                    End Site
                    {
                        OFFSET -0.000000 0.000000 3.568577
                    }
                }
            }
        }
    }
    JOINT RightUpLeg
    {
        OFFSET -8.921444 0.000000 0.000000
        CHANNELS 3 Zrotation Xrotation Yrotation
        JOINT RightLeg
        {
            OFFSET -0.000000 -39.632927 0.000000
            CHANNELS 3 Zrotation Xrotation Yrotation
            JOINT RightFoot
            {
                OFFSET -0.000000 -38.058365 0.000000
                CHANNELS 3 Zrotation Xrotation Yrotation
                JOINT RightToeBase
                {
                    OFFSET -0.000000 -5.798938 13.382167
                    CHANNELS 3 Zrotation Xrotation Yrotation
                    End Site
                    {
                        OFFSET -0.000000 0.000000 3.568577
                    }
                }
            }
        }
    }
}
MOTION
Frames:    7
Frame Time:    0.004000
-19.819221    76.794197    -202.744537    -1.424713    -2.325288    8.589415    0.210204    -4.468255    0.331751    0.733762    -4.370681    0.351634    -1.826208    19.203125    2.506125    -1.227472    1.407152    2.396916    12.833057    -2.605627    -7.189553    -19.731524    6.597775    0.353014    -2.501019    0.895871    5.675661    -1.041255    1.009560    1.129709    -11.828921    -0.108807    -3.435778    17.194992    -1.662228    -0.283968    -1.302530    2.578704    -2.074339    3.760038    2.599458    1.351039    0.020472    4.998517    -1.228842    -2.340550    1.416504    -2.369566    4.926225    -10.657072    5.769304    0.000000    0.000000    0.000000    1.262166    7.502285    6.918642    2.644114    -0.661800    -1.533159    -4.845273    -9.276240    -14.350674    0.000000    0.000000    0.000000    
-19.817904    76.795998    -202.751205    -1.420999    -2.333863    8.582785    0.158860    -4.447127    0.320516    0.851738    -4.390613    0.346943    -1.927248    19.208595    2.501563    -1.216206    1.414900    2.390795    12.712500    -2.667075    -7.190522    -19.704916    6.671349    0.397433    -2.470555    0.892771    5.657736    -1.072497    1.004414    1.119227    -11.874794    -0.115704    -3.420111    17.175135    -1.645825    -0.269627    -1.319111    2.593920    -2.086414    3.849925    2.616524    1.387080    0.015149    4.997021    -1.228368    -2.336204    1.427243    -2.384243    4.901690    -10.650248    5.786618    0.000000    0.000000    0.000000    1.256130    7.510006    6.935304    2.645538    -0.668235    -1.538303    -4.822755    -9.272991    -14.362040    0.000000    0.000000    0.000000    
-19.817430    76.795303    -202.752228    -1.424338    -2.343118    8.583405    0.171466    -4.444286    0.318500    0.838511    -4.376912    0.343826    -1.925734    19.178360    2.502212    -1.219153    1.450974    2.392089    12.719187    -2.687158    -7.173167    -19.708115    6.709401    0.384219    -2.458973    0.879392    5.658859    -1.069885    0.990602    1.104997    -11.871870    -0.139018    -3.423178    17.177610    -1.628199    -0.268603    -1.323737    2.589449    -2.083335    3.858386    2.612442    1.398045    0.019217    5.012346    -1.221246    -2.338076    1.411525    -2.353345    4.909117    -10.650352    5.760431    0.000000    0.000000    0.000000    1.261848    7.520287    6.915960    2.646327    -0.671500    -1.532946    -4.848143    -9.275646    -14.349314    0.000000    0.000000    0.000000    
-19.816864    76.795837    -202.754593    -1.420556    -2.353055    8.583789    0.161590    -4.430829    0.314944    0.860416    -4.387654    0.341701    -1.958113    19.193329    2.495018    -1.210105    1.449014    2.384566    12.687222    -2.665519    -7.180177    -19.693211    6.711786    0.386574    -2.442264    0.878725    5.648493    -1.088670    0.988781    1.102191    -11.884481    -0.116066    -3.414752    17.179165    -1.659355    -0.262359    -1.320243    2.600187    -2.075002    3.835746    2.622348    1.376107    0.018241    5.017621    -1.218219    -2.342311    1.424121    -2.372935    4.926252    -10.650654    5.772706    0.000000    0.000000    0.000000    1.254791    7.527373    6.930406    2.652400    -0.669085    -1.516436    -4.873705    -9.263892    -14.372835    0.000000    0.000000    0.000000    
-19.815104    76.795677    -202.756165    -1.423151    -2.356478    8.582977    0.170792    -4.430907    0.315933    0.847055    -4.380267    0.341867    -1.949235    19.195137    2.479706    -1.210330    1.435541    2.368670    12.710889    -2.674741    -7.167059    -19.712107    6.741241    0.367813    -2.427582    0.858077    5.647871    -1.100812    0.967259    1.100292    -11.875048    -0.140923    -3.413283    17.176487    -1.626499    -0.276181    -1.324953    2.583321    -2.087502    3.860706    2.610034    1.509908    0.019085    5.017371    -1.215212    -2.338846    1.424260    -2.389852    4.909482    -10.649820    5.783006    0.000000    0.000000    0.000000    1.258052    7.533993    6.936979    2.648565    -0.678649    -1.557582    -4.839758    -9.264197    -14.341579    0.000000    0.000000    0.000000    
-19.816164    76.797188    -202.764313    -1.421525    -2.340546    8.589981    0.170464    -4.436445    0.310343    0.835277    -4.394305    0.335797    -1.938350    19.191988    2.481176    -1.223214    1.456500    2.369104    12.716467    -2.665653    -7.173325    -19.711683    6.723117    0.379221    -2.418176    0.865982    5.623958    -1.093741    0.974324    1.099532    -11.859190    -0.128208    -3.428409    17.170799    -1.632866    -0.245514    -1.324887    2.592740    -2.072705    3.828700    2.614776    1.376553    0.014199    4.989258    -1.209337    -2.338077    1.436518    -2.392247    4.907174    -10.641639    5.786685    0.000000    0.000000    0.000000    1.252385    7.509081    6.939785    2.651083    -0.670732    -1.530475    -4.839344    -9.273674    -14.377320    0.000000    0.000000    0.000000    
-19.817209    76.795670    -202.765533    -1.427658    -2.354327    8.592599    0.176241    -4.422943    0.308771    0.837739    -4.398087    0.334327    -1.928035    19.207392    2.465614    -1.244022    1.440187    2.350025    12.708300    -2.664877    -7.183285    -19.709349    6.738520    0.379603    -2.406176    0.851570    5.623230    -1.093926    0.959337    1.094274    -11.847623    -0.136366    -3.418233    17.156370    -1.628057    -0.259608    -1.317402    2.588172    -2.084092    3.829931    2.614488    1.503812    0.026681    5.001039    -1.209688    -2.340212    1.431367    -2.375987    4.888824    -10.654951    5.733883    0.000000    0.000000    0.000000    1.266220    7.525283    6.910932    2.639345    -0.680671    -1.556123    -4.833930    -9.254014    -14.310292    0.000000    0.000000    0.000000    
